# AST/ASF file generated using VICON BodyLanguage
# -----------------------------------------------
:version 1.10
:name VICON
:units
  mass 1.0
  length 0.45
  angle deg
:documentation
   .ast/.asf automatically generated from VICON data using
   VICON BodyBuilder and BodyLanguage model FoxedUp or BRILLIANT.MOD
:root
   order TX TY TZ RX RY RZ
   axis XYZ
   position 0 0 0  
   orientation 0 0 0 
:bonedata
  begin
     id 1 
     name lhipjoint
     direction 0.707368 -0.647095 0.284426 
     length 2.60678 
     axis 0 0 0  XYZ
  end
  begin
     id 2 
     name lfemur
     direction 0.34202 -0.939693 0  
     length 6.63812  
     axis 0 0 20  XYZ
    dof rx ry rz
    limits (-160.0 20.0)
           (-70.0 70.0)
           (-60.0 70.0)
  end
  begin
     id 3 
     name ltibia
     direction 0.34202 -0.939693 0   
     length 7.51178   
     axis 0 0 20   XYZ
    dof rx
    limits (-10.0 170.0)
  end
  begin
     id 4 
     name lfoot
     direction 0.121251 -0.333133 0.935051   
     length 1.83716   
     axis -90 7.62852e-016 20   XYZ
    dof rx rz
    limits (-45.0 90.0)
           (-70.0 20.0)
  end
  begin
     id 5 
     name ltoes
     direction 1.53611e-011 -4.21962e-011 1   
     length 0.916133   
     axis -90 7.62852e-016 20   XYZ
    dof rx
    limits (-90.0 20.0)
  end
  begin
     id 6 
     name rhipjoint
     direction -0.692419 -0.660507 0.290321   
     length 2.55385  
     axis 0 0 0  XYZ 
  end
  begin
     id 7 
     name rfemur
     direction -0.34202 -0.939693 0   
     length 7.29079   
     axis 0 0 -20   XYZ
    dof rx ry rz
    limits (-160.0 20.0)
           (-70.0 70.0)
           (-70.0 60.0)
  end
  begin
     id 8 
     name rtibia
     direction -0.34202 -0.939693 0   
     length 7.47143   
     axis 0 0 -20   XYZ
    dof rx
    limits (-10.0 170.0)
 end
 begin
     id 9 
     name rfoot
     direction -0.119907 -0.329441 0.936532   
     length 1.79439  
     axis -90 -7.62852e-016 -20   XYZ
    dof rx rz
    limits (-45.0 90.0)
           (-20.0 70.0)
  end
  begin
     id 10 
     name rtoes
     direction -1.53571e-011 -4.21961e-011 1   
     length 0.896039   
     axis -90 -7.62852e-016 -20   XYZ
    dof rx
    limits (-90.0 20.0)
  end
  begin
     id 11 
     name lowerback
     direction 0.0367721 0.992912 -0.113016   
     length 1.73542   
     axis 0 0 0   XYZ
    dof rx ry rz
    limits (-20.0 45.0)
           (-30.0 30.0)
           (-30.0 30.0)
  end
  begin
     id 12 
     name upperback
     direction -0.000314626 0.990678 0.136227   
     length 1.7514   
     axis 0 0 0   XYZ
    dof rx ry rz
    limits (-20.0 45.0)
           (-30.0 30.0)
           (-30.0 30.0)
  end
  begin
     id 13 
     name thorax
     direction -0.0226159 0.981151 0.191917   
     length 1.71471   
     axis 0 0 0   XYZ
    dof rx ry rz
    limits (-20.0 45.0)
           (-30.0 30.0)
           (-30.0 30.0)
  end
  begin
     id 14 
     name lowerneck
     direction 0.0219333 0.998071 0.0580739   
     length 1.65882   
     axis 0 0 0   XYZ
    dof rx ry rz
    limits (-20.0 45.0)
           (-30.0 30.0)
           (-30.0 30.0)
  end
  begin
     id 15 
     name upperneck
     direction 0.0384529 0.980058 -0.194957   
     length 1.6612   
     axis 0 0 0   XYZ
    dof rx ry rz
    limits (-20.0 45.0)
           (-30.0 30.0)
           (-30.0 30.0)
  end
  begin
     id 16
     name head
     direction 0.00592123 0.997421 -0.0715234  
     length 1.68077  
     axis 0 0 0   XYZ
    dof rx ry rz
    limits (-20.0 45.0)
           (-30.0 30.0)
           (-30.0 30.0)
  end
  begin
     id 17 
     name lclavicle
     direction 0.904803 0.417826 0.0821728  
     length 3.42227  
     axis 0 0 0   XYZ
    dof ry rz
    limits (-20.0 10.0)
           (0.0 20.0)
  end
  begin
     id 18 
     name lhumerus
     direction 1 -4.48965e-011 -2.68786e-027   
     length 5.11878   
     axis -180 -30 -90   XYZ
    dof rx ry rz
    limits (-60.0 90.0)
           (-90.0 90.0)
           (-90.0 90.0)
  end
  begin
     id 19
     name lradius
     direction 1 -4.48965e-011 2.61168e-028   
     length 3.59971   
     axis -180 -30 -90   XYZ
    dof rx
    limits (-10.0 170.0)
  end
  begin
     id 20
     name lwrist
     direction 1 -4.48965e-011 1.58672e-027   
     length 1.79985   
     axis -1.65735e-015 90 90   XYZ
    dof ry
    limits (-180.0 0.0)
 end
  begin
     id 21 
     name lhand
     direction 1 -4.48942e-011 3.17344e-027   
     length 0.62877   
     axis -2.02492e-015 90 90   XYZ
    dof rx rz
    limits (-90.0 90.0)
           (-45.0 45.0)
  end
  begin
     id 22 
     name lfingers
     direction 1 -4.49011e-011 6.34687e-027   
     length 0.506931   
     axis -4.04985e-015 90 90   XYZ
    dof rx
    limits (0.0 90.0)
  end
  begin
     id 23
     name lthumb
     direction 0.707107 -6.34982e-011 0.707107   
     length 0.727854   
     axis -90 45 2.85299e-015   XYZ
    dof rx rz
    limits (-45.0 45.0)
           (-45.0 45.0)
  end
  begin
     id 24 
     name rclavicle
     direction -0.945647 0.32488 0.0143075   
     length 3.52737  
     axis 0 0 0   XYZ 
    dof ry rz
    limits (-10.0 20.0)
           (-20.0 0.0)
  end
  begin
     id 25 
     name rhumerus
     direction -1 -4.48962e-011 1.92182e-027  
     length 5.4902   
     axis -180 30 90   XYZ
    dof rx ry rz
    limits (-90.0 60.0)
           (-90.0 90.0)
           (-90.0 90.0)
  end
  begin
     id 26 
     name rradius
     direction -1 -4.48967e-011 -5.97193e-028   
     length 3.20659   
     axis -180 30 90   XYZ
    dof rx
    limits (-10.0 170.0)
  end
  begin
     id 27 
     name rwrist
     direction -1 -4.48964e-011 1.58672e-027   
     length 1.6033   
     axis -1.65735e-015 -90 -90   XYZ
    dof ry
    limits (-180.0 0.0)
  end
  begin
     id 28
     name rhand
     direction -1 -4.49006e-011 3.17344e-027   
     length 0.691885   
     axis -2.02492e-015 -90 -90   XYZ
    dof rx rz
    limits (-90.0 90.0)
           (-45.0 45.0)
  end
  begin
     id 29
     name rfingers
     direction -1 -4.48908e-011 6.34687e-027   
     length 0.557815   
     axis -4.04985e-015 -90 -90   XYZ
    dof rx
    limits (0.0 90.0)
  end
  begin
     id 30
     name rthumb
     direction -0.707107 -6.34999e-011 0.707107   
     length 0.800915   
     axis -90 -45 -2.85299e-015   XYZ
    dof rx rz
    limits (-45.0 45.0)
           (-45.0 45.0)
  end
:hierarchy
  begin
    root lhipjoint rhipjoint lowerback
    lhipjoint lfemur
    lfemur ltibia
    ltibia lfoot
    lfoot ltoes
    rhipjoint rfemur
    rfemur rtibia
    rtibia rfoot
    rfoot rtoes
    lowerback upperback
    upperback thorax
    thorax lowerneck lclavicle rclavicle
    lowerneck upperneck
    upperneck head
    lclavicle lhumerus
    lhumerus lradius
    lradius lwrist
    lwrist lhand lthumb
    lhand lfingers
    rclavicle rhumerus
    rhumerus rradius
    rradius rwrist
    rwrist rhand rthumb
    rhand rfingers
  end

#!OML:ASF I:\Actors\actors\Patient Classification 1\Patient 1\Session 1\Subject1.ASF
:FULLY-SPECIFIED
:DEGREES
113
root 0.089614 17.5072 8.53857 11.6745 -1.01595 -8.14843
lowerback -1.88002 0.981944 6.16592
upperback -9.83577 1.60108 0.876557
thorax -9.23378 0.329941 -2.60263
lowerneck -3.99484 -11.9288 -9.51926
upperneck 24.9088 -18.3166 9.82814
head 10.4254 -8.55501 2.92929
rclavicle -3.83654e-014 3.73715e-014
rhumerus -47.1549 -36.4531 -61.3386
rradius 17.0969
rwrist 60.4681
rhand 6.02176 -30.1419
rfingers 7.12502
rthumb 31.3441 -57.4773
lclavicle -3.83654e-014 3.73715e-014
lhumerus -40.4856 18.3036 76.7251
lradius 17.159
lwrist -37.2709
lhand -17.2211 -14.1461
lfingers 7.12502
lthumb 9.02195 15.641
rfemur -5.87602 24.4751 23.2561
rtibia 2.07594
rfoot -12.5179 -26.9013
rtoes 3.83982
lfemur 1.83775 -46.5617 -10.3817
ltibia -4.10544
lfoot -25.2982 54.8688
ltoes 12.7629
114
root 0.0904661 17.5052 8.53951 11.6854 -1.06546 -8.14909
lowerback -2.05212 1.00604 6.21289
upperback -9.77982 1.61917 0.886524
thorax -9.06735 0.341842 -2.61527
lowerneck -4.01739 -11.5015 -9.14426
upperneck 24.8603 -17.6693 9.62131
head 10.2757 -8.24407 2.89923
rclavicle -8.24956e-015 7.95139e-016
rhumerus -46.9961 -36.3779 -61.5002
rradius 17.1527
rwrist 60.1738
rhand 5.97121 -30.2306
rfingers 7.12502
rthumb 31.2959 -57.5753
lclavicle -8.24956e-015 7.95139e-016
lhumerus -40.3883 18.201 76.8727
lradius 17.1073
lwrist -37.3659
lhand -17.3014 -14.0903
lfingers 7.12502
lthumb 8.94452 15.7001
rfemur -5.93152 24.3666 23.2363
rtibia 2.13851
rfoot -12.5192 -26.7615
rtoes 3.71582
lfemur 1.79105 -46.4292 -10.3627
ltibia -4.06546
lfoot -25.3094 54.7673
ltoes 12.757
115
root 0.0897127 17.5032 8.54164 11.7062 -1.13953 -8.1599
lowerback -2.26702 1.0462 6.22343
upperback -9.70787 1.65412 0.90789
thorax -8.85697 0.367331 -2.5953
lowerneck -4.11411 -11.078 -8.73001
upperneck 24.8977 -17.0269 9.36
head 10.1678 -7.93064 2.83505
rclavicle 3.01159e-014 -3.18055e-015
rhumerus -46.7674 -36.2035 -61.7704
rradius 17.2191
rwrist 59.7752
rhand 5.95279 -30.3157
rfingers 7.12502
rthumb 31.2783 -57.6638
lclavicle 3.01159e-014 -3.18055e-015
lhumerus -40.2116 18.2638 76.9425
lradius 16.9872
lwrist -37.6644
lhand -17.2901 -14.0456
lfingers 7.12502
lthumb 8.95545 15.7444
rfemur -5.98986 24.2981 23.2289
rtibia 2.20129
rfoot -12.5617 -26.6291
rtoes 3.68889
lfemur 1.74575 -46.2949 -10.3364
ltibia -4.00979
lfoot -25.4046 54.6854
ltoes 12.7535
116
root 0.0888571 17.5014 8.54465 11.6844 -1.21783 -8.16175
lowerback -2.44468 1.08681 6.19886
upperback -9.6359 1.69248 0.94153
thorax -8.66929 0.397128 -2.54352
lowerneck -4.2236 -10.7152 -8.2422
upperneck 25.0284 -16.4544 8.94385
head 10.0878 -7.65437 2.69252
rclavicle -1.80894e-014 -4.37326e-014
rhumerus -46.6377 -36.1704 -61.8345
rradius 17.2099
rwrist 59.6138
rhand 5.96656 -30.3649
rfingers 7.12502
rthumb 31.2915 -57.7104
lclavicle -1.80894e-014 -4.37326e-014
lhumerus -40.0453 18.2585 77.0769
lradius 16.9207
lwrist -37.8604
lhand -17.1693 -13.9585
lfingers 7.12502
lthumb 9.07195 15.8264
rfemur -5.96644 24.2855 23.2412
rtibia 2.24273
rfoot -12.6652 -26.5393
rtoes 3.94822
lfemur 1.81504 -46.179 -10.3983
ltibia -3.99599
lfoot -25.4324 54.6329
ltoes 12.7707
117
root 0.0886191 17.4997 8.5467 11.6215 -1.26983 -8.16573
lowerback -2.54506 1.12473 6.19827
upperback -9.58133 1.7341 0.961978
thorax -8.54609 0.423649 -2.52084
lowerneck -4.28752 -10.3427 -7.76841
upperneck 25.2532 -15.8784 8.51215
head 10.0392 -7.3785 2.54683
rclavicle 1.64991e-014 -3.18055e-015
rhumerus -46.7399 -36.3388 -61.617
rradius 17.1964
rwrist 59.8423
rhand 6.0091 -30.2609
rfingers 7.12502
rthumb 31.332 -57.5986
lclavicle 1.64991e-014 -3.18055e-015
lhumerus -39.9359 18.1454 77.248
lradius 16.9093
lwrist -37.9329
lhand -17.1353 -14.0413
lfingers 7.12502
lthumb 9.10481 15.7421
rfemur -5.88047 24.2981 23.2776
rtibia 2.26532
rfoot -12.7855 -26.513
rtoes 4.18072
lfemur 1.90367 -45.9323 -10.4605
ltibia -4.00524
lfoot -25.1465 54.4855
ltoes 12.5987
118
root 0.0882268 17.4988 8.54868 11.5298 -1.27372 -8.17255
lowerback -2.63668 1.15398 6.20046
upperback -9.51948 1.76459 0.982364
thorax -8.42114 0.444673 -2.49932
lowerneck -4.3569 -9.93793 -7.41977
upperneck 25.616 -15.2907 8.20755
head 10.069 -7.09213 2.46163
rclavicle -1.08338e-014 3.57812e-015
rhumerus -46.9015 -36.4678 -61.3813
rradius 17.2183
rwrist 60.1462
rhand 6.04229 -30.0715
rfingers 7.12502
rthumb 31.3636 -57.403
lclavicle -1.08338e-014 3.57812e-015
lhumerus -39.8175 18.0118 77.4282
lradius 16.8986
lwrist -37.9605
lhand -17.2234 -14.1868
lfingers 7.12502
lthumb 9.01975 15.6003
rfemur -5.75377 24.299 23.3391
rtibia 2.27913
rfoot -12.8991 -26.5409
rtoes 4.10158
lfemur 2.00905 -45.7052 -10.524
ltibia -4.01937
lfoot -24.7754 54.3381
ltoes 12.3339
119
root 0.0877711 17.4983 8.55171 11.4081 -1.23544 -8.17776
lowerback -2.74047 1.17473 6.1828
upperback -9.44953 1.78241 1.01067
thorax -8.28182 0.461924 -2.45747
lowerneck -4.36355 -9.55111 -7.12144
upperneck 26.0314 -14.7423 7.94546
head 10.1223 -6.82545 2.39498
rclavicle -4.07509e-015 -9.93923e-015
rhumerus -46.8973 -36.295 -61.4346
rradius 17.2499
rwrist 60.0655
rhand 6.08751 -30.1299
rfingers 7.12502
rthumb 31.4067 -57.4531
lclavicle -4.07509e-015 -9.93923e-015
lhumerus -39.6908 17.9341 77.5772
lradius 16.8961
lwrist -38.011
lhand -17.3943 -14.4944
lfingers 7.12502
lthumb 8.85483 15.2998
rfemur -5.6042 24.2013 23.4196
rtibia 2.31015
rfoot -12.9491 -26.5296
rtoes 3.79736
lfemur 2.16736 -45.5321 -10.6232
ltibia -4.04643
lfoot -24.4622 54.2004
ltoes 12.0808
120
root 0.088442 17.4982 8.5561 11.2688 -1.17558 -8.17122
lowerback -2.84136 1.22018 6.19438
upperback -9.39017 1.8321 0.995125
thorax -8.1518 0.490351 -2.47951
lowerneck -4.35987 -9.20236 -6.87031
upperneck 26.6197 -14.28 7.75166
head 10.2586 -6.59239 2.34654
rclavicle -1.54058e-014 -1.74931e-014
rhumerus -46.9149 -36.1246 -61.5212
rradius 17.2769
rwrist 59.8683
rhand 6.09244 -30.2939
rfingers 7.12502
rthumb 31.4114 -57.6161
lclavicle -1.54058e-014 -1.74931e-014
lhumerus -39.5575 17.9619 77.6227
lradius 16.8706
lwrist -38.2308
lhand -17.6337 -14.9877
lfingers 7.12502
lthumb 8.62387 14.8162
rfemur -5.43494 24.0678 23.4903
rtibia 2.34161
rfoot -12.9717 -26.503
rtoes 3.6748
lfemur 2.31164 -45.2373 -10.7222
ltibia -4.07308
lfoot -24.1013 53.9363
ltoes 11.7925
121
root 0.0900949 17.498 8.56018 11.1645 -1.07845 -8.15589
lowerback -2.96544 1.29524 6.24526
upperback -9.35524 1.91835 0.925252
thorax -8.0301 0.531054 -2.58143
lowerneck -4.36435 -8.88978 -6.60868
upperneck 27.3425 -13.8931 7.59198
head 10.4593 -6.38606 2.29723
rclavicle 1.10325e-014 8.74653e-015
rhumerus -47.1659 -36.3607 -61.2495
rradius 17.2436
rwrist 60.134
rhand 6.04004 -30.3164
rfingers 7.12502
rthumb 31.3615 -57.6484
lclavicle 1.10325e-014 8.74653e-015
lhumerus -39.3786 17.7992 77.7413
lradius 16.8725
lwrist -38.2842
lhand -17.7225 -15.1347
lfingers 7.12502
lthumb 8.53811 14.6727
rfemur -5.28902 24.0245 23.5338
rtibia 2.36065
rfoot -13.0452 -26.5547
rtoes 3.78885
lfemur 2.36067 -44.9636 -10.7636
ltibia -4.07303
lfoot -23.7514 53.6439
ltoes 11.585
122
root 0.0917071 17.4973 8.56258 11.0922 -0.972575 -8.11228
lowerback -3.11328 1.36228 6.23204
upperback -9.33238 1.99169 0.860939
thorax -7.90991 0.570218 -2.64044
lowerneck -4.39661 -8.63287 -6.20969
upperneck 28.1479 -13.5363 7.16966
head 10.6724 -6.20421 2.12727
rclavicle -3.08116e-015 1.59028e-015
rhumerus -47.3597 -36.5631 -61.0133
rradius 17.1582
rwrist 60.4654
rhand 5.9885 -30.4164
rfingers 7.12502
rthumb 31.3124 -57.7578
lclavicle -3.08116e-015 1.59028e-015
lhumerus -39.1833 17.5606 77.917
lradius 16.8991
lwrist -38.0879
lhand -17.4194 -14.7448
lfingers 7.12502
lthumb 8.8306 15.0504
rfemur -5.19069 24.0486 23.5249
rtibia 2.37379
rfoot -13.1159 -26.6812
rtoes 3.87337
lfemur 2.33143 -44.7078 -10.7857
ltibia -4.04539
lfoot -23.2917 53.3434
ltoes 11.2649
123
root 0.0938768 17.4972 8.56461 10.9865 -0.889669 -8.02194
lowerback -3.23876 1.42748 6.1312
upperback -9.28788 2.06292 0.810013
thorax -7.78059 0.61603 -2.63648
lowerneck -4.36752 -8.38617 -5.87847
upperneck 28.9685 -13.2015 6.80727
head 10.8976 -6.0347 1.98794
rclavicle 2.32578e-014 1.94809e-014
rhumerus -47.3598 -36.5142 -61.0179
rradius 17.0638
rwrist 60.5298
rhand 5.92207 -30.5652
rfingers 7.12502
rthumb 31.2491 -57.9189
lclavicle 2.32578e-014 1.94809e-014
lhumerus -38.9828 17.4831 78.0519
lradius 16.9092
lwrist -37.9446
lhand -17.0227 -14.2485
lfingers 7.12502
lthumb 9.21348 15.5302
rfemur -5.06983 24.0908 23.467
rtibia 2.38576
rfoot -13.2183 -26.8302
rtoes 4.05169
lfemur 2.33518 -44.3726 -10.8925
ltibia -4.01069
lfoot -22.6193 53.0047
ltoes 10.5436
